<svg width="24" height="24" viewBox="0 0 24 24" fill="none" xmlns="http://www.w3.org/2000/svg">
<path d="M12 2C6.477 2 2 6.477 2 12C2 16.4435 4.9005 20.2055 8.91 21.508H15.09C19.0995 20.2055 22 16.4435 22 12C22 6.477 17.523 2 12 2Z" fill="url(#paint0_linear_9_229)"/>
<path opacity="0.05" d="M15.005 20.998L15 18.099C15 17.6295 14.89 17.171 14.679 16.7555C17.4995 16.189 18.872 14.5215 18.872 11.667C18.872 10.5395 18.5395 9.54401 17.884 8.70701C17.934 8.54851 17.971 8.38451 17.994 8.21651C18.088 7.53201 17.9825 7.08451 17.8975 6.72451L17.884 6.66651C17.791 6.26851 17.6795 5.98451 17.675 5.97251L17.6195 5.83151L17.564 5.69051L17.413 5.67451L17.2615 5.65851C17.2615 5.65851 17.162 5.64801 17.011 5.64801C16.8015 5.64801 16.491 5.66901 16.1975 5.76851L16.0995 5.80151C15.7295 5.92601 15.38 6.04401 14.891 6.33601C14.748 6.42151 14.5915 6.51901 14.424 6.62801C13.667 6.44051 12.8525 6.34501 12 6.34501C11.139 6.34501 10.3175 6.44101 9.55551 6.63051C9.38601 6.52051 9.22851 6.42201 9.08451 6.33601C8.59551 6.04401 8.24601 5.92651 7.87601 5.80151L7.77801 5.76851C7.48551 5.66901 7.17451 5.64801 6.96501 5.64801C6.81401 5.64801 6.71451 5.65851 6.71451 5.65851L6.56351 5.67451L6.41351 5.69001L6.35751 5.83051L6.30101 5.97201C6.29601 5.98501 6.18451 6.26901 6.09151 6.66751L6.07801 6.72501C5.99301 7.08451 5.88751 7.53251 5.98151 8.21651C6.00551 8.38951 6.04401 8.55901 6.09651 8.72201C5.45401 9.55501 5.12851 10.545 5.12851 11.667C5.12851 14.5145 6.50251 16.181 9.32701 16.752C9.23001 16.946 9.15451 17.151 9.10101 17.364C9.00251 17.3975 8.91201 17.42 8.83201 17.4325C8.71301 17.4505 8.58851 17.4595 8.46251 17.4595C8.11951 17.4595 7.85001 17.3925 7.74501 17.33C7.58851 17.237 7.30901 16.9665 7.03801 16.571C6.80651 16.2335 6.44551 15.792 6.04201 15.6075C5.69301 15.448 5.32351 15.3565 5.02751 15.3565C4.95851 15.3565 4.89501 15.3615 4.83951 15.3705C4.58101 15.4115 4.36501 15.5535 4.24751 15.7605C4.14601 15.939 4.13001 16.147 4.20351 16.331C4.31301 16.605 4.62901 16.8235 4.87501 16.9585C4.99601 17.025 5.25751 17.268 5.41001 17.513C5.52451 17.697 5.57751 17.828 5.65101 18.009C5.69451 18.1165 5.74251 18.2335 5.80751 18.375C6.04251 18.886 6.77601 19.337 6.85901 19.3865C7.26201 19.628 7.93951 19.7055 8.43751 19.728L8.49901 19.7295H8.49951C8.61951 19.7295 8.78451 19.718 9.00151 19.694V21.0005C9.00251 21.265 8.73301 21.325 8.37651 21.3195L8.65001 21.4115C9.69751 21.786 10.8225 22 12 22C13.1775 22 14.3025 21.786 15.3515 21.412L15.703 21.281C15.3475 21.269 15.008 21.211 15.005 20.998Z" fill="black"/>
<path opacity="0.07" d="M15.3905 21.3985C15.1875 21.422 14.75 21.344 14.75 21.001V18.099C14.75 17.552 14.586 17.0235 14.282 16.573C17.2395 16.0945 18.6215 14.5265 18.6215 11.667C18.6215 10.5485 18.2785 9.57001 17.602 8.75601C17.6705 8.57351 17.7185 8.38101 17.746 8.18251C17.8335 7.54451 17.738 7.13951 17.654 6.78201L17.6405 6.72401C17.5515 6.34351 17.4465 6.07551 17.442 6.06451L17.3865 5.92351L17.235 5.90751C17.235 5.90751 17.146 5.89801 17.0105 5.89801C16.82 5.89801 16.5385 5.91651 16.2775 6.00551L16.1795 6.03851C15.8225 6.15901 15.485 6.27251 15.019 6.55051C14.853 6.64951 14.668 6.76601 14.4685 6.89751C13.702 6.69701 12.8725 6.59501 12 6.59501C11.119 6.59501 10.2825 6.69751 9.51049 6.90001C9.30899 6.76751 9.12299 6.65051 8.95599 6.55051C8.48999 6.27251 8.15249 6.15851 7.79549 6.03851L7.69749 6.00551C7.43699 5.91701 7.15499 5.89801 6.96449 5.89801C6.82899 5.89801 6.73999 5.90751 6.73999 5.90751L6.58899 5.92351L6.53249 6.06501C6.52799 6.07601 6.42299 6.34401 6.33399 6.72451L6.32049 6.78251C6.23599 7.14001 6.14049 7.54451 6.22849 8.18251C6.25649 8.38601 6.30649 8.58301 6.37749 8.76951C5.71399 9.57951 5.37799 10.553 5.37799 11.667C5.37799 14.5185 6.76099 16.086 9.72099 16.57C9.52349 16.865 9.38549 17.1975 9.31449 17.552C9.14949 17.617 8.99999 17.66 8.86899 17.68C8.73749 17.7 8.60049 17.71 8.46199 17.71C8.11699 17.71 7.78549 17.6455 7.61699 17.5455C7.39699 17.415 7.08849 17.0885 6.83099 16.713C6.65599 16.458 6.30749 16.0045 5.93699 15.8355C5.61949 15.6905 5.28799 15.607 5.02649 15.607C4.97149 15.607 4.92149 15.611 4.87749 15.618C4.69449 15.647 4.54349 15.744 4.46349 15.885C4.39949 15.997 4.38899 16.1265 4.43399 16.239C4.52349 16.463 4.85499 16.664 4.99349 16.74C5.16099 16.832 5.45299 17.112 5.62049 17.382C5.74599 17.584 5.80549 17.7305 5.88099 17.9155C5.92349 18.02 5.96999 18.134 6.03299 18.2715C6.19849 18.631 6.70949 19.0075 6.98549 19.173C7.36249 19.399 8.06249 19.462 8.44649 19.479L8.50199 19.48C8.65149 19.48 8.90199 19.4575 9.24949 19.4125V21.001C9.24949 21.3905 8.75399 21.406 8.63249 21.406C8.61699 21.406 8.88399 21.498 8.88399 21.498C9.86549 21.82 10.911 22 12 22C13.089 22 14.1345 21.82 15.1155 21.4985C15.1155 21.4985 15.406 21.3965 15.3905 21.3985Z" fill="black"/>
<path d="M18.3719 11.667C18.3719 10.512 17.9809 9.55401 17.3134 8.80301C17.3859 8.64051 17.4614 8.42251 17.4989 8.14851C17.5849 7.52351 17.4834 7.14851 17.3974 6.78151C17.3114 6.41451 17.2099 6.15651 17.2099 6.15651C17.2099 6.15651 16.7489 6.10951 16.3584 6.24251C15.9679 6.37551 15.6319 6.47701 15.1474 6.76601C14.9209 6.90101 14.6929 7.04901 14.5124 7.16901C13.7409 6.95501 12.8924 6.84501 11.9999 6.84501C11.0994 6.84501 10.2434 6.95551 9.4664 7.17101C9.2854 7.05051 9.0559 6.90151 8.8279 6.76551C8.3434 6.47651 8.0074 6.37501 7.6169 6.24201C7.2264 6.10901 6.7654 6.15601 6.7654 6.15601C6.7654 6.15601 6.6639 6.41401 6.5779 6.78101C6.4919 7.14801 6.3904 7.52301 6.4764 8.14801C6.5149 8.42901 6.5929 8.65101 6.6674 8.81451C6.0124 9.56101 5.6284 10.513 5.6284 11.6665C5.6284 14.658 7.2444 16.0235 10.1889 16.384C9.8454 16.747 9.6149 17.212 9.5374 17.7295C9.3439 17.8145 9.1209 17.8945 8.9064 17.9265C8.3544 18.01 7.7709 17.9265 7.4899 17.76C7.2089 17.5935 6.8754 17.2185 6.6254 16.8535C6.4144 16.5455 6.1099 16.188 5.8339 16.062C5.4694 15.8955 5.1149 15.833 4.9174 15.864C4.7194 15.8955 4.6259 16.041 4.6674 16.1455C4.7089 16.2495 4.9069 16.406 5.1154 16.5205C5.3239 16.635 5.6469 16.9475 5.8344 17.2495C6.0434 17.5865 6.0844 17.781 6.2614 18.166C6.3859 18.437 6.8119 18.7755 7.1154 18.9575C7.3759 19.114 7.8964 19.203 8.4594 19.2285C8.6539 19.2375 9.1134 19.1805 9.5009 19.1255V21.0005C9.5009 21.32 9.2084 21.563 8.9054 21.507C9.8779 21.834 10.9164 22 11.9999 22C13.0829 22 14.1214 21.834 15.0949 21.508C14.7924 21.5635 14.4999 21.3205 14.4999 21.001V18.099C14.4999 17.4345 14.2364 16.834 13.8134 16.3865C16.7364 16.0355 18.3719 14.7025 18.3719 11.667ZM5.6194 16.3635C5.5424 16.324 5.5009 16.251 5.5269 16.1995C5.5529 16.148 5.6369 16.1385 5.7139 16.178C5.7909 16.2175 5.8324 16.2905 5.8064 16.342C5.7804 16.3935 5.6964 16.403 5.6194 16.3635ZM6.2254 16.741C6.1849 16.785 6.0979 16.771 6.0309 16.71C5.9639 16.649 5.9424 16.5635 5.9829 16.5195C6.0234 16.4755 6.1104 16.4895 6.1774 16.5505C6.2444 16.6115 6.2659 16.697 6.2254 16.741ZM6.6024 17.366C6.5514 17.402 6.4649 17.3685 6.4094 17.291C6.3539 17.2135 6.3504 17.121 6.4014 17.085C6.4524 17.049 6.5389 17.0825 6.5944 17.16C6.6494 17.2375 6.6534 17.33 6.6024 17.366ZM7.1439 17.8365C7.1094 17.8925 7.0114 17.895 6.9254 17.8425C6.8394 17.79 6.7974 17.702 6.8319 17.646C6.8664 17.59 6.9644 17.5875 7.0504 17.64C7.1364 17.6925 7.1784 17.7805 7.1439 17.8365ZM7.6559 18.297C7.5494 18.284 7.4704 18.2175 7.4794 18.1485C7.4879 18.0795 7.5814 18.0345 7.6874 18.0475C7.7939 18.0605 7.8729 18.127 7.8639 18.196C7.8554 18.2645 7.7624 18.31 7.6559 18.297ZM8.4814 18.4165C8.3679 18.41 8.2794 18.345 8.2839 18.272C8.2884 18.199 8.3839 18.1445 8.4974 18.151C8.6109 18.1575 8.6994 18.2225 8.6949 18.2955C8.6904 18.369 8.5949 18.423 8.4814 18.4165ZM9.2604 18.3385C9.1394 18.3385 9.0414 18.2755 9.0414 18.198C9.0414 18.1205 9.1394 18.0575 9.2604 18.0575C9.3814 18.0575 9.4794 18.1205 9.4794 18.198C9.4794 18.2755 9.3809 18.3385 9.2604 18.3385Z" fill="white"/>
<defs>
<linearGradient id="paint0_linear_9_229" x1="2" y1="11.754" x2="22" y2="11.754" gradientUnits="userSpaceOnUse">
<stop stop-color="#4C4C4C"/>
<stop offset="1" stop-color="#343434"/>
</linearGradient>
</defs>
</svg>
